{"title":"Demi Lovato - Confident (2015.Rock Pop)","uid":12552797,"size":99831686,"categoryP":"video","categoryS":"music_videos","magnet":"?xt=urn:btih:eb86cd6d14b17d311aac456733217c1dc58dfccb&amp;dn=Demi+Lovato+-+Confident+%282015.Rock+Pop%29&amp;tr=udp%3A%2F%2Ftracker.leechers-paradise.org%3A6969&amp;tr=udp%3A%2F%2Fzer0day.ch%3A1337&amp;tr=udp%3A%2F%2Fopen.demonii.com%3A1337&amp;tr=udp%3A%2F%2Ftracker.coppersurfer.tk%3A6969&amp;tr=udp%3A%2F%2Fexodus.desync.com%3A6969","seeders":0,"leechers":1,"uploader":"MeRaDil","files":1,"time":1444584281,"description":"DEMI LOVATO - CONFIDENT\r\n\r\n \nhttp://ultraimg.com/images/confident-1.png\r\n \nhttp://ultraimg.com/images/confident-2.png\r\n \nhttp://ultraimg.com/images/confident-3.png\r\n \nhttp://ultraimg.com/images/confident-4.png\r\n\r\n\r\nMEDIA INFO\r\nGeneral\r\nDemi Lovato - Confident\r\nFormat                                   : MPEG-4\r\nFormat profile                           : Base Media\r\nCodec ID                                 : isom\r\nFile size                                : 95.2 MiB\r\nDuration                                 : 3mn 34s\r\nOverall bit rate                         : 3 717 Kbps\r\nMusicVid name                            : Confident\r\nAlbum                                    : Confident\r\nPerformer                                : Demi Lovato\r\nGenre                                    : Pop Rock\r\nContentType                              : Music Video\r\nRecorded date                            : 2015\r\nRating                                   : ****\r\nMake                                     : MeRaDil\r\nRelease date                             : USA . october 9 . 2015\r\n\r\nVideo\r\nID                                       : 1\r\nFormat                                   : AVC\r\nFormat/Info                              : Advanced Video Codec\r\nFormat profile                           :   \r\nFormat settings, CABAC                   : Yes\r\nFormat settings, ReFrames                : 2 frames\r\nCodec ID                                 : avc1\r\nCodec ID/Info                            : Advanced Video Coding\r\nDuration                                 : 3mn 34s\r\nBit rate                                 : 3 455 Kbps\r\nWidth                                    : 1 920 pixels\r\nHeight                                   : 1 080 pixels\r\nDisplay aspect ratio                     : 16:9\r\nFrame rate mode                          : Variable\r\nFrame rate                               : 23.976 fps\r\nMinimum frame rate                       : 23.974 fps\r\nMaximum frame rate                       : 23.981 fps\r\nColor space                              : YUV\r\nChroma subsampling                       : 4:2:0\r\nBit depth                                : 8 bits\r\nScan type                                : Progressive\r\nBits/(Pixel*Frame)                       : 0.069\r\nStream size                              : 88.4 MiB (93%)\r\n\r\nAudio\r\nID                                       : 2\r\nFormat                                   : AAC\r\nFormat/Info                              : Advanced Audio Codec\r\nFormat profile                           : LC\r\nCodec ID                                 : 40\r\nDuration                                 : 3mn 34s\r\nBit rate mode                            : Constant\r\nBit rate                                 : 256 Kbps\r\nChannel(s)                               : 2 channels\r\nChannel positions                        : Front: L R\r\nSampling rate                            : 44.1 KHz\r\nCompression mode                         : Lossy\r\nStream size                              : 6.56 MiB (7%)\r\n \nhttps://thepiratebay.mn/user/MeRaDil\r\n\r\nDemi Lovato * Confident * Pop Rock * Promo","torrent":{"xt":"urn:btih:eb86cd6d14b17d311aac456733217c1dc58dfccb","amp;dn":"Demi+Lovato+-+Confident+%282015.Rock+Pop%29","amp;tr":["udp%3A%2F%2Ftracker.leechers-paradise.org%3A6969","udp%3A%2F%2Fzer0day.ch%3A1337","udp%3A%2F%2Fopen.demonii.com%3A1337","udp%3A%2F%2Ftracker.coppersurfer.tk%3A6969","udp%3A%2F%2Fexodus.desync.com%3A6969"],"infoHash":"eb86cd6d14b17d311aac456733217c1dc58dfccb","infoHashBuffer":{"type":"Buffer","data":[235,134,205,109,20,177,125,49,26,172,69,103,51,33,124,29,197,141,252,203]},"announce":[],"urlList":[]}}